<svg width="55" height="55" viewBox="0 0 55 55" fill="none" xmlns="http://www.w3.org/2000/svg">
    <circle cx="27.5" cy="27.5" r="27.5" fill="#fff"/>
    <path d="M14 24h4l2 5-2.5 1.5a11 11 0 0 0 5 5L24 33l5 2v4a2 2 0 0 1-2 2c-8.072-.49-14.51-6.928-15-15a2 2 0 0 1 2-2M24 17.5h3.667c1.012 0 1.833.82 1.833 1.833v1.834c0 1.012-.82 1.833-1.833 1.833h-1.834C24.821 23 24 23.82 24 24.833v1.834c0 1.012.82 1.833 1.833 1.833H29.5M34 17.5v3.667c0 1.012.82 1.833 1.833 1.833h1.834M39.5 17.5v11" stroke="#3E57AA" stroke-width="2" stroke-linejoin="round"/>
</svg>
