<svg width="55" height="55" viewBox="0 0 55 55" fill="none" xmlns="http://www.w3.org/2000/svg">
    <circle cx="27.5" cy="27.5" r="27.5" fill="#fff"/>
    <path clip-rule="evenodd" d="M16.667 19.5a2.833 2.833 0 0 1 2.833-2.833h17a2.833 2.833 0 0 1 2.833 2.833v17a2.833 2.833 0 0 1-2.833 2.833h-17a2.833 2.833 0 0 1-2.833-2.833v-17z" stroke="#3E57AA" stroke-width="2" stroke-linecap="round" stroke-linejoin="round"/>
    <path d="M28 16.667v3.541a.708.708 0 0 1-.708.709 2.125 2.125 0 0 0 0 4.25c.39 0 .708.317.708.708V28M28 28v2.125c0 .391.317.708.708.708a2.125 2.125 0 0 1 0 4.25.708.708 0 0 0-.708.709v3.541M39.333 28h-3.541a.708.708 0 0 1-.709-.708 2.125 2.125 0 0 0-4.25 0 .708.708 0 0 1-.708.708H28M28 28h-2.125a.708.708 0 0 0-.708.708 2.125 2.125 0 1 1-4.25 0 .708.708 0 0 0-.709-.708h-3.541" stroke="#3E57AA" stroke-width="2" stroke-linecap="round" stroke-linejoin="round"/>
</svg>
