<svg width="114" height="105" viewBox="0 0 114 105" fill="none" xmlns="http://www.w3.org/2000/svg">
    <path fill-rule="evenodd" clip-rule="evenodd" d="M101.993 104.704c5.904 0 10.476-4.572 10.476-10.552 0-6.01-4.572-10.582-10.476-10.582-5.903 0-10.504 4.573-10.504 10.582 0 5.98 4.601 10.552 10.504 10.552zm0-4.133c-3.646 0-6.135-2.668-6.135-6.448 0-3.724 2.431-6.42 6.135-6.42 3.705 0 6.106 2.696 6.106 6.42 0 3.78-2.46 6.448-6.106 6.448zM79.566 104.704c5.903 0 10.475-4.572 10.475-10.552 0-6.01-4.572-10.582-10.475-10.582-5.904 0-10.505 4.573-10.505 10.582 0 5.98 4.601 10.552 10.505 10.552zm0-4.133c-3.647 0-6.136-2.668-6.136-6.448 0-3.724 2.431-6.42 6.136-6.42 3.704 0 6.105 2.696 6.105 6.42 0 3.78-2.459 6.448-6.105 6.448zM69.805 83.95H53.67v3.744h6.01v16.6h4.114v-16.6h6.01v-3.743zm-27.167 16.562v-4.66h8.207V92.07h-8.207v-4.337h9.292V83.95H38.523v20.343h13.583v-3.782h-9.468zm-15.674 0v-4.66h8.208V92.07h-8.208v-4.338h9.292V83.95H22.85v20.342H36.43v-3.781h-9.467z" fill="#3E57AA"/>
    <mask id="w6n61m5tia" style="mask-type:luminance" maskUnits="userSpaceOnUse" x="0" y="83" width="22" height="22">
        <path fill-rule="evenodd" clip-rule="evenodd" d="M0 83.503h21.278v21.212H0V83.503z" fill="#fff"/>
    </mask>
    <g mask="url(#w6n61m5tia)">
        <path fill-rule="evenodd" clip-rule="evenodd" d="M10.64 100.567c-3.693 0-6.214-2.678-6.214-6.472 0-3.736 2.462-6.444 6.214-6.444v-4.148C4.66 83.503 0 88.093 0 94.123c0 6.003 4.66 10.592 10.64 10.592 6.802 0 11.723-6.032 10.432-12.645l-8.22-.01v3.783l3.782.002c-.648 2.842-2.9 4.722-5.994 4.722z" fill="#3E57AA"/>
    </g>
    <mask id="rwp0m3bg0b" style="mask-type:luminance" maskUnits="userSpaceOnUse" x="22" y="0" width="68" height="68">
        <path fill-rule="evenodd" clip-rule="evenodd" d="M22.678 0h66.981v67.427H22.678V0z" fill="#fff"/>
    </mask>
    <g mask="url(#rwp0m3bg0b)">
        <path fill-rule="evenodd" clip-rule="evenodd" d="M56.423 54.24c-11.713 0-19.708-8.51-19.708-20.573 0-11.877 7.81-20.482 19.708-20.482V0C37.46 0 22.678 14.589 22.678 33.76c0 19.078 14.781 33.667 33.745 33.667 17.106 0 30.73-11.87 33.236-28.196H75.431c-2.056 9.035-9.193 15.01-19.008 15.01z" fill="#3E57AA"/>
    </g>
    <mask id="ikkgsnetqc" style="mask-type:luminance" maskUnits="userSpaceOnUse" x="0" y="0" width="114" height="105">
        <path fill-rule="evenodd" clip-rule="evenodd" d="M0 104.715h113.416V0H0v104.715z" fill="#fff"/>
    </mask>
    <g mask="url(#ikkgsnetqc)" fill-rule="evenodd" clip-rule="evenodd" fill="#3E57AA">
        <path d="M63.411 39.23h12.02V27.21h-12.02v12.02zM92.614 39.291c.252 0 .482.062.693.186a1.4 1.4 0 0 1 .502.502c.122.21.185.44.185.691 0 .253-.063.483-.185.693a1.402 1.402 0 0 1-.502.503c-.21.123-.441.186-.693.186a1.379 1.379 0 0 1-.69-2.575c.213-.124.443-.186.69-.186zm0 2.485c.2 0 .385-.048.555-.147.17-.1.304-.233.405-.402.1-.17.15-.355.15-.556 0-.2-.05-.385-.15-.556a1.118 1.118 0 0 0-.96-.549c-.2 0-.385.05-.555.148a1.089 1.089 0 0 0-.55.957 1.093 1.093 0 0 0 1.105 1.106zm-.26-.387h-.23v-1.436h.51c.143 0 .26.043.352.128a.407.407 0 0 1 .137.31.407.407 0 0 1-.108.278.468.468 0 0 1-.284.145l.453.575h-.285l-.438-.56h-.107v.56zm.26-.769a.29.29 0 0 0 .194-.064.198.198 0 0 0 .075-.16.202.202 0 0 0-.075-.16.294.294 0 0 0-.194-.064h-.26v.448h.26zM112.036 101.757c.252 0 .482.062.693.185.211.124.377.291.502.502.122.211.185.441.185.692 0 .253-.063.483-.185.693a1.407 1.407 0 0 1-.502.503 1.36 1.36 0 0 1-.693.185 1.381 1.381 0 0 1-.69-2.575c.213-.123.443-.185.69-.185zm0 2.484a1.115 1.115 0 0 0 .96-.549c.1-.17.15-.354.15-.556 0-.2-.05-.384-.15-.555a1.115 1.115 0 0 0-1.515-.402c-.17.099-.304.232-.402.402a1.086 1.086 0 0 0-.148.555c0 .202.049.386.148.556.098.17.232.303.402.402.17.099.354.147.555.147zm-.26-.387h-.229v-1.436h.509c.143 0 .26.043.352.128a.408.408 0 0 1 .138.311.407.407 0 0 1-.109.277.467.467 0 0 1-.284.145l.453.575h-.285l-.438-.559h-.107v.559zm.26-.768a.29.29 0 0 0 .194-.064.198.198 0 0 0 .075-.16.202.202 0 0 0-.075-.162.294.294 0 0 0-.194-.063h-.26v.449h.26z"/>
    </g>
</svg>
